{"title":"18 Years Old Short Skirt Big Glasses - Dillion Harper.wmv","uid":8897347,"size":525238175,"categoryP":"porn","categoryS":"movie_clips","magnet":"?xt=urn:btih:59be51ff5ef8389d4b6029de06a29bcef66ffac0&amp;dn=18+Years+Old+Short+Skirt+Big+Glasses+-+Dillion+Harper.wmv&amp;tr=udp%3A%2F%2Ftracker.openbittorrent.com%3A80&amp;tr=udp%3A%2F%2Fopen.demonii.com%3A1337&amp;tr=udp%3A%2F%2Ftracker.coppersurfer.tk%3A6969&amp;tr=udp%3A%2F%2Fexodus.desync.com%3A6969","seeders":1,"leechers":0,"uploader":null,"files":1,"time":1378732419,"description":" &lt;a href=&quot;http://picturemost.biz/share.php?id=24CE_522DACE2&quot; rel=&quot;nofollow&quot; target=&quot;_NEW&quot;&gt;http://picturemost.biz/share.php?id=24CE_522DACE2&lt;/a&gt;\n\n\n\nDressing up in a school uniform gets Dillon's man all hot and bothered. When you dress like that, you're just asking to get fucked...\n\n\nFormat : Windows Media\nFile size : 501 MiB\nDuration : 26mn 24s\nOverall bit rate mode : Constant\nOverall bit rate : 2 652 Kbps\nMaximum Overall bit rate : 2 651 Kbps\nEncoded date : UTC 2013-09-05 02:41:59.597\n\nVideo\nID : 2\nFormat : VC-1\nFormat profile : MP@HL\nCodec ID : WMV3\nCodec ID/Info : Windows Media Video 9\nCodec ID/Hint : WMV3\nDescription of the codec : Windows Media Video 9 - Professional\nDuration : 26mn 24s\nBit rate mode : Constant\nBit rate : 2 500 Kbps\nWidth : 1 280 pixels\nHeight : 720 pixels\nDisplay aspect ratio : 16:9\nFrame rate : 23.976 fps\nNominal frame rate : 29.970 fps\nBit depth : 8 bits\nScan type : Progressive\nCompression mode : Lossy\nBits/(Pixel*Frame) : 0.113\nStream size : 472 MiB (94%)\n\nAudio\nID : 1\nFormat : WMA\nFormat version : Version 2\nCodec ID : 161\nCodec ID/Info : Windows Media Audio\nDescription of the codec : Windows Media Audio 9.2 - 128 kbps, 44 kHz, stereo 2-pass CBR\nDuration : 26mn 24s\nBit rate mode : Constant\nBit rate : 128 Kbps\nChannel(s) : 2 channels\nSampling rate : 44.1 KHz\nBit depth : 16 bits\nStream size : 24.2 MiB (5%)","torrent":{"xt":"urn:btih:59be51ff5ef8389d4b6029de06a29bcef66ffac0","amp;dn":"18+Years+Old+Short+Skirt+Big+Glasses+-+Dillion+Harper.wmv","amp;tr":["udp%3A%2F%2Ftracker.openbittorrent.com%3A80","udp%3A%2F%2Fopen.demonii.com%3A1337","udp%3A%2F%2Ftracker.coppersurfer.tk%3A6969","udp%3A%2F%2Fexodus.desync.com%3A6969"],"infoHash":"59be51ff5ef8389d4b6029de06a29bcef66ffac0","infoHashBuffer":{"type":"Buffer","data":[89,190,81,255,94,248,56,157,75,96,41,222,6,162,155,206,246,111,250,192]},"announce":[],"urlList":[]}}